<svg width="173" height="167" viewBox="0 0 173 167" fill="none" xmlns="http://www.w3.org/2000/svg">
<path d="M148.4 21.3C124.3 -2.80003 77 5.39997 42.7 39.6C8.5 73.8 0.300004 121.2 24.4 145.3C48.5 169.4 95.9 161.2 130.1 127C164.4 92.8 172.6 45.4 148.4 21.3ZM77.6 67.8H83.4L83.5 84.1V90.4H83.7L87.8 84.1L99 67.8H104.8L93.7 100.4H88.7L94.1 84.8C95.2 81.7 96.9 77.6 98.2 74.6H98L93 82L82.5 97.2H80.1L79.7 81.9V74.5H79.5C78.7 77.5 77.7 81.7 76.7 84.7L71.4 100.3H66.6L77.6 67.8ZM56.6 67.8H61.9L52.3 95.8H65L63.5 100.3H45.5L56.6 67.8ZM99.2 122.7C75.9 137 43.6 138.9 38.6 129C36.4 124.5 39.8 117.7 39.9 117.7C40 117.7 37.7 122.3 39.3 125.6C43.6 134 73.4 131.1 95.6 117.4C96.9 116.6 97.9 115.9 98.7 115.4C99.9 117.1 101.1 118.9 102.2 120.6C101.6 121.2 100.5 121.9 99.2 122.7ZM122.7 75.1C121.3 73.2 119.5 71.8 116.9 71.8C113.8 71.8 111.7 73.9 111.4 76.2C111.1 78.3 112.6 79.4 114.8 80.9L117.9 83C120.7 84.9 121.9 87 121.4 90.7C120.5 96.6 115.3 101 108.4 101C104.1 101 100.5 99.2 98.3 95.1L102.5 92.1C103.9 94.8 106.4 96.5 109.5 96.5C112.8 96.5 115.5 94.6 115.9 91.6C116.2 89.5 114.9 88.4 112.7 86.9L109.7 84.8C107.2 83 105.5 80.7 106 76.9C106.8 71.7 112 67.3 117.9 67.3C121.7 67.3 124.7 69.2 126.5 72.1L122.7 75.1Z" fill="#153F90"/>
</svg>
